<svg id="Layer_2" data-name="Layer 2" xmlns="http://www.w3.org/2000/svg" viewBox="0 0 97 25"><defs><style>.cls-1{fill:none;stroke:#1378c0;stroke-miterlimit:10;}.cls-2,.cls-3{fill:#1378c0;}.cls-3{font-size:12.33px;font-family:MyriadPro-Regular, Myriad Pro;}.cls-4{letter-spacing:0em;}.cls-5{letter-spacing:0.01em;}.cls-6{letter-spacing:0.01em;}</style></defs><title>clogo</title><polyline class="cls-1" points="29.63 6.11 29.63 0.64 61.94 0.64 61.94 24.39 29.63 24.39 29.63 19.49"/><path class="cls-2" d="M33.67,16a2.7,2.7,0,0,1-2-.71,2.75,2.75,0,0,1-.71-2v-1a2.68,2.68,0,0,1,.71-2,2.7,2.7,0,0,1,2-.7A3.16,3.16,0,0,1,35,9.82a2.24,2.24,0,0,1,.94.74l-.89.79a1.73,1.73,0,0,0-.61-.46,1.78,1.78,0,0,0-.75-.16,1.49,1.49,0,0,0-1.1.39,1.54,1.54,0,0,0-.39,1.12v1a1.6,1.6,0,0,0,.39,1.15,1.5,1.5,0,0,0,1.1.4,1.66,1.66,0,0,0,.75-.18,1.7,1.7,0,0,0,.61-.49l.89.86a2.28,2.28,0,0,1-.94.72A3.36,3.36,0,0,1,33.67,16Z"/><path class="cls-2" d="M39.29,16a2.61,2.61,0,0,1-1.72-.48A1.77,1.77,0,0,1,37,14.05a1.76,1.76,0,0,1,.53-1.39,2.33,2.33,0,0,1,1.58-.46h1.77l.09,1H39.1a1.06,1.06,0,0,0-.71.21.82.82,0,0,0-.24.65.8.8,0,0,0,.32.71,1.64,1.64,0,0,0,1,.23,2.78,2.78,0,0,0,1-.15.5.5,0,0,0,.35-.47l.13.88a1.59,1.59,0,0,1-1,.65A2.48,2.48,0,0,1,39.29,16Zm1.53-.09v-4a1.33,1.33,0,0,0-.33-1,1.22,1.22,0,0,0-.93-.34,2.51,2.51,0,0,0-.72.11,2.32,2.32,0,0,0-.65.32l-.89-.61a2.35,2.35,0,0,1,.93-.66,3.38,3.38,0,0,1,1.3-.24,2.51,2.51,0,0,1,1.81.61A2.22,2.22,0,0,1,42,11.88v4Z"/><path class="cls-2" d="M43.85,15.9V9.65h1.23V15.9Zm3.44-4.77a1,1,0,0,0-.41-.3,1.42,1.42,0,0,0-.57-.1,1.11,1.11,0,0,0-1.23,1.21L45,10.74a2.29,2.29,0,0,1,.75-.87,1.72,1.72,0,0,1,1-.31,2.41,2.41,0,0,1,.78.12,1.55,1.55,0,0,1,.6.37Z"/><path class="cls-2" d="M51,16a2,2,0,0,1-1.59-.66,2.8,2.8,0,0,1-.57-1.88V12.09a3,3,0,0,1,.55-1.89,2.07,2.07,0,0,1,2.57-.37,2.16,2.16,0,0,1,.74.81l-.13,1.28a1.42,1.42,0,0,0-.14-.68,1,1,0,0,0-.42-.43,1.34,1.34,0,0,0-.66-.15,1.18,1.18,0,0,0-.94.38A1.52,1.52,0,0,0,50,12.1v1.36a1.46,1.46,0,0,0,.34,1,1.18,1.18,0,0,0,.94.37,1.34,1.34,0,0,0,.66-.15,1.05,1.05,0,0,0,.42-.44,1.47,1.47,0,0,0,.14-.69l.09,1.31a1.83,1.83,0,0,1-.58.76A1.68,1.68,0,0,1,51,16Zm1.57-.1V7.14h1.23V15.9Z"/><path class="cls-2" d="M57.85,16a4.47,4.47,0,0,1-1.51-.25A3.41,3.41,0,0,1,55.13,15l.73-.9a4.16,4.16,0,0,0,1,.58,2.71,2.71,0,0,0,1,.19,2.12,2.12,0,0,0,1.09-.22A.75.75,0,0,0,59.3,14a.52.52,0,0,0-.24-.49,1.51,1.51,0,0,0-.64-.19l-.84-.08c-.26,0-.51-.05-.76-.09a2.28,2.28,0,0,1-.68-.23,1.28,1.28,0,0,1-.49-.49,1.82,1.82,0,0,1-.18-.87,1.8,1.8,0,0,1,.61-1.49,2.81,2.81,0,0,1,1.81-.49,4.37,4.37,0,0,1,1.37.2,4,4,0,0,1,1.18.6l-.74.9a4.1,4.1,0,0,0-.92-.45,2.86,2.86,0,0,0-.89-.15,1.7,1.7,0,0,0-.94.21.73.73,0,0,0-.31.64.44.44,0,0,0,.21.41,1.48,1.48,0,0,0,.58.16l.76.07a7,7,0,0,1,.79.08,2.48,2.48,0,0,1,.74.25,1.37,1.37,0,0,1,.54.53,1.91,1.91,0,0,1,.21,1,1.79,1.79,0,0,1-.66,1.51A3.21,3.21,0,0,1,57.85,16Z"/><text class="cls-3" transform="translate(0.88 15.9)">c<tspan class="cls-4" x="5.52" y="0">r</tspan><tspan x="9.49" y="0">a</tspan><tspan class="cls-5" x="15.43" y="0">f</tspan><tspan class="cls-6" x="19.17" y="0">t</tspan><tspan x="23.36" y="0">y</tspan></text></svg>